<?xml version="1.0" encoding="utf-8"?>
<!-- Generator: Adobe Illustrator 23.1.0, SVG Export Plug-In . SVG Version: 6.00 Build 0)  -->
<svg version="1.1" id="Layer_1" xmlns="http://www.w3.org/2000/svg" xmlns:xlink="http://www.w3.org/1999/xlink" x="0px" y="0px"
	 viewBox="0 0 500 500" style="enable-background:new 0 0 500 500;" xml:space="preserve">
<style type="text/css">
	.st0{fill:#8AC440;}
	.st1{fill:url(#XMLID_2_);}
	.st2{fill:#FFFFFF;}
	.st3{fill:#B60E16;}
	.st4{fill:url(#XMLID_3_);}
</style>
<g id="XMLID_135_">
	<circle id="XMLID_121_" class="st0" cx="250" cy="250" r="148.77"/>
	<linearGradient id="XMLID_2_" gradientUnits="userSpaceOnUse" x1="267.4795" y1="237.9379" x2="367.8715" y2="338.3299">
		<stop  offset="0" style="stop-color:#026838"/>
		<stop  offset="0.8957" style="stop-color:#026838;stop-opacity:0"/>
	</linearGradient>
	<path id="XMLID_140_" class="st1" d="M398.57,250.2c0-9.4-0.88-18.59-2.55-27.51l-48.66-48.29L239.58,274.56l-21.57,57.69
		l63.36,63.36C348.36,381.13,398.57,321.53,398.57,250.2z"/>
	<g id="XMLID_146_">
		<path id="XMLID_158_" class="st2" d="M218.31,332.28l-66.3-66.3c-8.3-8.3-8.3-21.75,0-30.05c8.3-8.3,21.75-8.3,30.05,0
			l36.41,36.41l99.14-98.07c8.34-8.25,21.8-8.18,30.05,0.16c8.25,8.34,8.18,21.79-0.16,30.05L218.31,332.28z"/>
	</g>
</g>
<g id="XMLID_139_">
	<circle id="XMLID_125_" class="st3" cx="250" cy="250" r="245"/>
	<linearGradient id="XMLID_3_" gradientUnits="userSpaceOnUse" x1="250" y1="256.0257" x2="408.2346" y2="414.2604">
		<stop  offset="0" style="stop-color:#501012"/>
		<stop  offset="0.8957" style="stop-color:#501012;stop-opacity:0"/>
	</linearGradient>
	<path id="XMLID_143_" class="st4" d="M133.33,372.69l122.24,122.24c127.02-2.83,230.18-102.34,238.83-227.84L366.67,139.36
		L133.33,372.69z"/>
	<g id="XMLID_136_">
		<path id="XMLID_138_" class="st2" d="M133.33,372.69L133.33,372.69c-13.58-13.58-13.58-35.8,0-49.38l183.96-183.96
			c13.58-13.58,35.8-13.58,49.38,0l0,0c13.58,13.58,13.58,35.8,0,49.38L182.71,372.69C169.13,386.27,146.91,386.27,133.33,372.69z"
			/>
		<path id="XMLID_137_" class="st2" d="M133.33,139.36L133.33,139.36c13.58-13.58,35.8-13.58,49.38,0l183.96,183.96
			c13.58,13.58,13.58,35.8,0,49.38l0,0c-13.58,13.58-35.8,13.58-49.38,0L133.33,188.74C119.75,175.16,119.75,152.94,133.33,139.36z"
			/>
	</g>
</g>
</svg>
