<?xml version="1.0" encoding="utf-8"?>
<!-- Generator: Adobe Illustrator 23.1.0, SVG Export Plug-In . SVG Version: 6.00 Build 0)  -->
<svg version="1.1" id="Layer_1" xmlns="http://www.w3.org/2000/svg" xmlns:xlink="http://www.w3.org/1999/xlink" x="0px" y="0px"
	 viewBox="0 0 500 500" style="enable-background:new 0 0 500 500;" xml:space="preserve">
<style type="text/css">
	.st0{fill:#8AC440;}
	.st1{fill:url(#XMLID_2_);}
	.st2{fill:#FFFFFF;}
</style>
<g id="XMLID_135_">
	<circle id="XMLID_121_" class="st0" cx="250" cy="250" r="245"/>
	<linearGradient id="XMLID_2_" gradientUnits="userSpaceOnUse" x1="278.7854" y1="230.1359" x2="444.1126" y2="395.4631">
		<stop  offset="0" style="stop-color:#026838"/>
		<stop  offset="0.8957" style="stop-color:#026838;stop-opacity:0"/>
	</linearGradient>
	<path id="XMLID_140_" class="st1" d="M494.67,250.33c0-15.48-1.45-30.62-4.2-45.3l-80.14-79.53L232.84,290.45l-35.53,95
		l104.34,104.34C411.99,465.95,494.67,367.8,494.67,250.33z"/>
	<g id="XMLID_146_">
		<path id="XMLID_158_" class="st2" d="M197.81,385.49L88.63,276.32c-13.67-13.66-13.67-35.82,0-49.48
			c13.66-13.66,35.82-13.66,49.48,0l59.97,59.96l163.27-161.51c13.74-13.59,35.89-13.47,49.48,0.27
			c13.59,13.74,13.47,35.89-0.27,49.48L197.81,385.49z"/>
	</g>
</g>
</svg>
